<svg width="282" height="311" viewBox="0 0 282 311" fill="none" xmlns="http://www.w3.org/2000/svg">
<path d="M281.588 155.318C281.588 69.722 218.565 0.332916 140.823 0.332916C63.0814 0.332916 0.059082 69.722 0.059082 155.318C0.059082 232.675 51.5346 296.793 118.829 308.42V200.118H83.088V155.318H118.829V121.173C118.829 82.3296 139.844 60.8739 171.998 60.8739C187.399 60.8739 203.508 63.9009 203.508 63.9009V102.042H185.757C168.271 102.042 162.818 113.989 162.818 126.245V155.318H201.858L195.617 200.118H162.818V308.42C230.112 296.793 281.588 232.675 281.588 155.318Z" fill="#1877F2"/>
<path d="M195.617 200.118L201.858 155.318H162.818V126.245C162.818 113.989 168.271 102.042 185.757 102.042H203.507V63.901C203.507 63.901 187.398 60.8739 171.998 60.8739C139.844 60.8739 118.829 82.3297 118.829 121.173V155.318H83.0879V200.118H118.829V308.42C125.995 309.658 133.341 310.303 140.823 310.303C148.306 310.303 155.651 309.658 162.818 308.42V200.118H195.617Z" fill="white"/>
</svg>
