<svg width="220" height="234" viewBox="0 0 220 234" fill="none" xmlns="http://www.w3.org/2000/svg">
<path d="M215.526 119.606C215.526 111.364 214.828 103.438 213.53 95.8301H110.122V140.793H169.212C166.667 155.323 158.931 167.634 147.303 175.876V205.042H182.787C203.549 184.805 215.526 155.006 215.526 119.606Z" fill="#4285F4"/>
<path d="M110.122 233.204C139.767 233.204 164.621 222.795 182.787 205.043L147.303 175.877C137.471 182.852 124.895 186.973 110.122 186.973C81.5251 186.973 57.32 166.525 48.6861 139.051H12.0042V169.167C30.0706 207.156 67.2017 233.204 110.122 233.204Z" fill="#34A853"/>
<path d="M48.6859 139.05C46.49 132.075 45.2423 124.626 45.2423 116.964C45.2423 109.303 46.49 101.853 48.6859 94.8791V64.7627H12.004C4.31827 80.9606 0.31891 98.8377 0.325692 116.964C0.325692 135.721 4.56782 153.474 12.004 169.166L48.6859 139.05Z" fill="#FBBC05"/>
<path d="M110.122 46.9579C126.242 46.9579 140.715 52.8226 152.094 64.3408L183.586 31.0015C164.571 12.2448 139.717 0.726562 110.122 0.726562C67.2017 0.726562 30.0706 26.7746 12.0042 64.7635L48.6861 94.8799C57.32 67.4053 81.5251 46.9579 110.122 46.9579Z" fill="#EA4335"/>
</svg>
