<svg width="253" height="248" viewBox="0 0 253 248" fill="none" xmlns="http://www.w3.org/2000/svg">
<path d="M9.79941 0.196289H243.304C248.532 0.196289 252.77 4.34227 252.77 9.45664V237.879C252.77 242.993 248.532 247.139 243.304 247.139H9.79941C4.57124 247.139 0.333008 242.993 0.333008 237.879V9.45664C0.333008 4.34227 4.57124 0.196289 9.79941 0.196289ZM140.659 131.57V111.317H50.8185V131.57H82.8936V221.747H108.427V131.57H140.659ZM150.839 219.366C154.957 221.42 159.827 222.96 165.449 223.987C171.071 225.014 176.996 225.528 183.226 225.528C189.297 225.528 195.064 224.962 200.527 223.833C205.992 222.704 210.782 220.842 214.9 218.249C219.018 215.657 222.277 212.269 224.679 208.084C227.081 203.899 228.282 198.727 228.282 192.566C228.282 188.099 227.596 184.185 226.224 180.822C224.851 177.458 222.871 174.467 220.285 171.849C217.698 169.23 214.596 166.882 210.98 164.803C207.364 162.723 203.286 160.759 198.746 158.911C195.42 157.576 192.438 156.279 189.798 155.022C187.159 153.764 184.915 152.48 183.068 151.171C181.22 149.862 179.795 148.476 178.792 147.012C177.789 145.55 177.287 143.893 177.287 142.045C177.287 140.35 177.736 138.823 178.633 137.463C179.531 136.102 180.798 134.934 182.435 133.958C184.071 132.983 186.076 132.226 188.452 131.687C190.828 131.148 193.467 130.878 196.371 130.878C198.482 130.878 200.713 131.032 203.062 131.34C205.411 131.649 207.773 132.123 210.148 132.765C212.524 133.407 214.834 134.215 217.078 135.191C219.321 136.167 221.393 137.296 223.293 138.579V115.553C219.44 114.115 215.23 113.049 210.664 112.357C206.097 111.663 200.858 111.317 194.946 111.317C188.927 111.317 183.226 111.945 177.841 113.204C172.456 114.461 167.719 116.426 163.628 119.095C159.537 121.765 156.303 125.166 153.928 129.299C151.552 133.432 150.364 138.374 150.364 144.124C150.364 151.467 152.542 157.73 156.898 162.915C161.252 168.101 167.864 172.491 176.733 176.085C180.217 177.472 183.464 178.832 186.473 180.167C189.481 181.502 192.082 182.888 194.272 184.325C196.463 185.763 198.191 187.328 199.459 189.023C200.726 190.717 201.36 192.642 201.36 194.799C201.36 196.391 200.963 197.867 200.171 199.227C199.38 200.588 198.179 201.769 196.569 202.77C194.958 203.771 192.952 204.555 190.55 205.119C188.148 205.684 185.338 205.966 182.117 205.966C176.628 205.966 171.19 205.029 165.806 203.156C160.421 201.282 155.432 198.47 150.839 194.722V219.366Z" fill="#3178C6"/>
</svg>
