<svg width="185" height="233" viewBox="0 0 185 233" fill="none" xmlns="http://www.w3.org/2000/svg">
<path d="M92.7422 116.418C92.7422 95.331 113.12 78.2363 138.257 78.2363C163.394 78.2363 183.772 95.331 183.772 116.418C183.772 137.505 163.394 154.599 138.257 154.599C113.12 154.599 92.7422 137.505 92.7422 116.418Z" fill="#1ABCFE"/>
<path d="M1.71289 192.78C1.71289 171.693 22.0906 154.599 47.2278 154.599H92.7426V192.78C92.7426 213.867 72.3651 230.961 47.2278 230.961C22.0906 230.961 1.71289 213.867 1.71289 192.78Z" fill="#0ACF83"/>
<path d="M92.7422 1.87402V78.2364H138.257C163.394 78.2364 183.772 61.1422 183.772 40.0553C183.772 18.9684 163.394 1.87402 138.257 1.87402H92.7422Z" fill="#FF7262"/>
<path d="M1.71289 40.0553C1.71289 61.1422 22.0906 78.2364 47.2278 78.2364H92.7426V1.87402H47.2278C22.0906 1.87402 1.71289 18.9684 1.71289 40.0553Z" fill="#F24E1E"/>
<path d="M2.00244 116.539C2.00244 137.626 22.3801 154.72 47.5173 154.72H93.0322V78.3574H47.5173C22.3801 78.3574 2.00244 95.4521 2.00244 116.539Z" fill="#A259FF"/>
</svg>
