<svg width="248" height="276" viewBox="0 0 248 276" fill="none" xmlns="http://www.w3.org/2000/svg">
<mask id="mask0_349_126" style="mask-type:alpha" maskUnits="userSpaceOnUse" x="0" y="0" width="248" height="276">
<path fill-rule="evenodd" clip-rule="evenodd" d="M175.365 273.861C179.252 275.557 183.685 275.448 187.608 273.335L238.422 245.966C243.761 243.09 247.156 237.041 247.156 230.405V44.828C247.156 38.192 243.761 32.1432 238.422 29.2673L187.608 1.89775C182.459 -0.875622 176.433 -0.196319 171.914 3.48127C171.268 4.00662 170.653 4.59319 170.077 5.2396L72.7999 104.579L30.4284 68.5765C26.484 65.2251 20.9669 65.4996 17.3036 69.2297L3.71366 83.0672C-0.767319 87.6299 -0.772457 95.5208 3.70256 100.091L40.4486 137.616L3.70256 175.141C-0.772457 179.712 -0.767319 187.602 3.71366 192.165L17.3036 206.002C20.9669 209.733 26.484 210.007 30.4284 206.656L72.7999 170.653L170.077 269.993C171.615 271.716 173.422 273.014 175.365 273.861ZM185.492 74.901L111.682 137.616L185.492 200.331V74.901Z" fill="white"/>
</mask>
<g mask="url(#mask0_349_126)">
<path d="M238.422 29.3106L187.569 1.90333C181.683 -1.26904 174.648 0.0691377 170.028 5.24002L3.55372 175.142C-0.924021 179.712 -0.918872 187.603 3.56483 192.166L17.163 206.003C20.8286 209.733 26.3491 210.007 30.2958 206.657L230.77 36.4207C237.495 30.7096 247.155 36.079 247.155 45.5285V44.8677C247.155 38.2346 243.761 32.188 238.422 29.3106Z" fill="#0065A9"/>
<g filter="url(#filter0_d_349_126)">
<path d="M238.422 245.922L187.569 273.329C181.683 276.5 174.648 275.162 170.029 269.992L3.55421 100.09C-0.923532 95.5201 -0.918384 87.629 3.56531 83.0664L17.1635 69.229C20.8291 65.4989 26.3496 65.2242 30.2963 68.5757L230.77 238.811C237.495 244.522 247.156 239.153 247.156 229.703V230.364C247.156 236.997 243.761 243.043 238.422 245.922Z" fill="#007ACC"/>
</g>
<g filter="url(#filter1_d_349_126)">
<path d="M187.571 273.334C181.684 276.504 174.649 275.164 170.029 269.993C175.721 276.364 185.454 271.851 185.454 262.84V12.3916C185.454 3.38061 175.721 -1.13215 170.029 5.2396C174.649 0.0682416 181.684 -1.27182 187.571 1.89775L238.416 29.2673C243.758 32.1433 247.156 38.192 247.156 44.828V230.405C247.156 237.041 243.758 243.09 238.416 245.966L187.571 273.334Z" fill="#1F9CF0"/>
</g>
<g style="mix-blend-mode:overlay" opacity="0.25">
<path fill-rule="evenodd" clip-rule="evenodd" d="M175.214 273.862C179.101 275.556 183.534 275.448 187.457 273.335L238.27 245.965C243.61 243.089 247.006 237.041 247.006 230.405V44.8279C247.006 38.192 243.61 32.1432 238.271 29.2673L187.457 1.89775C182.309 -0.875623 176.282 -0.196321 171.762 3.48126C171.118 4.00662 170.502 4.59318 169.925 5.2396L72.649 104.579L30.2775 68.5765C26.3332 65.225 20.816 65.4997 17.1527 69.2297L3.56278 83.0672C-0.918198 87.6298 -0.923336 95.5208 3.55169 100.091L40.2977 137.616L3.55169 175.141C-0.923336 179.712 -0.918198 187.603 3.56278 192.165L17.1527 206.002C20.816 209.733 26.3332 210.007 30.2775 206.656L72.649 170.653L169.925 269.993C171.464 271.716 173.271 273.014 175.214 273.862ZM185.342 74.901L111.531 137.616L185.342 200.331V74.901Z" fill="url(#paint0_linear_349_126)"/>
</g>
</g>
<defs>
<filter id="filter0_d_349_126" x="-21.1342" y="44.902" width="289.623" height="251.464" filterUnits="userSpaceOnUse" color-interpolation-filters="sRGB">
<feFlood flood-opacity="0" result="BackgroundImageFix"/>
<feColorMatrix in="SourceAlpha" type="matrix" values="0 0 0 0 0 0 0 0 0 0 0 0 0 0 0 0 0 0 127 0" result="hardAlpha"/>
<feOffset/>
<feGaussianBlur stdDeviation="10.6667"/>
<feColorMatrix type="matrix" values="0 0 0 0 0 0 0 0 0 0 0 0 0 0 0 0 0 0 0.25 0"/>
<feBlend mode="overlay" in2="BackgroundImageFix" result="effect1_dropShadow_349_126"/>
<feBlend mode="normal" in="SourceGraphic" in2="effect1_dropShadow_349_126" result="shape"/>
</filter>
<filter id="filter1_d_349_126" x="148.695" y="-21.1371" width="119.794" height="317.507" filterUnits="userSpaceOnUse" color-interpolation-filters="sRGB">
<feFlood flood-opacity="0" result="BackgroundImageFix"/>
<feColorMatrix in="SourceAlpha" type="matrix" values="0 0 0 0 0 0 0 0 0 0 0 0 0 0 0 0 0 0 127 0" result="hardAlpha"/>
<feOffset/>
<feGaussianBlur stdDeviation="10.6667"/>
<feColorMatrix type="matrix" values="0 0 0 0 0 0 0 0 0 0 0 0 0 0 0 0 0 0 0.25 0"/>
<feBlend mode="overlay" in2="BackgroundImageFix" result="effect1_dropShadow_349_126"/>
<feBlend mode="normal" in="SourceGraphic" in2="effect1_dropShadow_349_126" result="shape"/>
</filter>
<linearGradient id="paint0_linear_349_126" x1="123.602" y1="0.196288" x2="123.602" y2="275.036" gradientUnits="userSpaceOnUse">
<stop stop-color="white"/>
<stop offset="1" stop-color="white" stop-opacity="0"/>
</linearGradient>
</defs>
</svg>
